<svg width="80" height="12" xmlns="http://www.w3.org/2000/svg" xmlns:xlink="http://www.w3.org/1999/xlink"><defs><path id="a" d="M.014.182h79.864v11.165H.014z"/></defs><g fill="none" fill-rule="evenodd"><g><mask id="b" fill="#fff"><use xlink:href="#a"/></mask><path d="M51.067 1.276h.098l.393-.002c.429 0 .936.008 1.443.07 1.648.2 2.75 1.223 3.024 2.805.178 1.022.206 2.059.083 2.999-.23 1.733-1.401 2.84-3.214 3.035-.35.039-.725.056-1.177.056-.321 0-.64-.008-.98-.018h-.033a46.676 46.676 0 0 0-.849-.018V1.267c.207.008.45.011.762.011.14 0 .29 0 .45-.002Zm2.468-.778c-1.016-.142-2.05-.161-3.016-.161-.242 0-.482 0-.722.002h-.029c-.258.002-.52.003-.782.003-.542 0-.975-.007-1.364-.023l-.2-.009-.005.234c-.005.185-.01.376.135.524.164.168.462.229 1.177.237v8.914h-.693c-.037 0-.072 0-.122-.002h-.057c-.13 0-.267.008-.371.11-.089.086-.128.213-.128.41 0 .196 0 .49.258.49.34 0 .693.007 1.12.017.39.008.924.02 1.458.02.917 0 1.709-.034 2.491-.108 2.63-.249 4.03-1.438 4.404-3.74.16-.988.143-2.14-.052-3.423C56.74 2.04 55.465.768 53.535.498ZM67.516 6.006c-.027.162-.052.336-.078.52l-.006.047c-.066.473-.14 1.01-.293 1.512-.464 1.517-1.576 2.254-3.4 2.254h-.07c-1.66-.017-2.81-.842-3.239-2.324a7.743 7.743 0 0 1 .021-4.452c.483-1.604 1.604-2.384 3.424-2.384.146 0 .298.005.45.015 1.554.1 2.673 1.23 2.994 3.02.065.357.098.73.134 1.125v.01c.017.19.037.412.063.657ZM64.263.191C61.96.08 60.36.972 59.658 2.756c-.26.664-.407 1.375-.55 2.068-.059.287-.126.612-.2.919a.196.196 0 0 0 .12.228l.041.35c.03.328.06.669.107 1.003.27 1.965 1.45 3.364 3.237 3.838.49.13.983.196 1.464.196 2.055 0 3.702-1.173 4.3-3.061.528-1.675.517-3.39-.034-5.096-.572-1.765-2.058-2.918-3.88-3.01ZM78.831 5.969c-.031.185-.058.392-.082.574-.064.476-.136 1.015-.284 1.517-.448 1.513-1.58 2.28-3.363 2.28h-.029c-1.745-.008-2.862-.78-3.32-2.298-.399-1.318-.429-2.7-.088-4.105.458-1.882 1.573-2.758 3.51-2.758.083 0 .168.002.255.005 1.713.064 2.882 1.18 3.209 3.06.059.341.09.687.128 1.087l.004.034c.016.173.036.38.06.604Zm.637-2.746C78.891 1.43 77.385.267 75.538.19a8.008 8.008 0 0 0-.326-.007c-2.132 0-3.604.901-4.26 2.606-.253.657-.392 1.357-.526 2.033l-.014.065c-.055.275-.113.56-.177.836-.021.089.03.185.117.225l.03.326c.028.316.06.673.106 1.025.257 1.964 1.43 3.368 3.216 3.854a5.79 5.79 0 0 0 1.512.208c2.136 0 3.812-1.304 4.373-3.403a8.275 8.275 0 0 0-.12-4.735ZM8.001 8.587c-.083-.086-.209-.123-.42-.123-.116 0-.468 0-.468.29v1.485h-4.59V1.26l.364-.001c.09 0 .211 0 .331.003.21.005.243.005.304.005h.05c.132 0 .241-.062.308-.176a.6.6 0 0 0 .07-.298c0-.188-.072-.469-.27-.469H.113L.08.433c-.022.073-.122.452.041.672a.377.377 0 0 0 .317.149c.135 0 .265.003.434.008.154.004.32.008.514.01v8.968h-.35l-.33-.001-.405-.002c-.138 0-.301.083-.301.477 0 .124 0 .503.249.503H8.09v-.205c0-.154 0-.307-.002-.458v-.136a45.657 45.657 0 0 1 .007-1.547c.004-.122-.027-.215-.094-.284" fill="#000" mask="url(#b)"/></g><path d="M13.31 1.28c.24 0 .401-.002.52-.007.237-.01.357-.192.357-.542 0-.401-.263-.413-.293-.413h-3.296a.363.363 0 0 0-.272.112c-.082.086-.118.206-.11.357 0 .293.187.476.486.476.248 0 .474.008.673.016l.263.009v9h-1.12c-.302 0-.302.327-.302.467 0 .391.22.447.41.45a77.61 77.61 0 0 0 1.762.017l1.746-.002v-.695c0-.236-.259-.236-.509-.236-.082 0-.176.002-.29.004a22.408 22.408 0 0 1-.567 0V1.278l.542.002ZM25.182 8.587c-.083-.086-.209-.123-.42-.123-.116 0-.468 0-.468.29v1.485h-4.59V1.26l.364-.001c.09 0 .211 0 .331.003.21.005.243.005.304.005h.05c.132 0 .242-.063.308-.176a.597.597 0 0 0 .07-.298c0-.188-.072-.469-.27-.469h-3.567l-.032.108c-.006.018-.133.44.04.675a.378.378 0 0 0 .317.148c.135 0 .265.003.434.008.154.004.32.008.514.01v8.968h-.349l-.331-.001-.406-.002c-.136 0-.3.083-.3.477 0 .124 0 .503.25.503h7.84v-.205c0-.169 0-.335-.002-.5v-.094a46.303 46.303 0 0 1 .007-1.547c.004-.122-.027-.216-.094-.284M35.417 8.587c-.083-.086-.21-.123-.421-.123-.116 0-.467 0-.467.29v1.485h-4.59V1.26l.363-.001c.091 0 .211 0 .332.003.21.005.242.005.304.005h.05c.132 0 .241-.063.307-.176a.597.597 0 0 0 .071-.298c0-.188-.072-.469-.27-.469h-3.567l-.033.11c-.022.073-.123.451.041.672a.377.377 0 0 0 .316.149c.135 0 .265.003.435.008.154.004.32.008.513.01v8.968h-.348l-.332-.001-.405-.002c-.137 0-.3.083-.3.477 0 .124 0 .503.249.503h7.841v-.205l-.002-.461-.001-.133c-.005-.69-.003-1.21.007-1.546.004-.123-.026-.217-.093-.285M45.358.348A33.303 33.303 0 0 0 44.16.332l-.988.002c-.148 0-.292 0-.437-.002-.394 0-.394.338-.394.483 0 .151.025.259.08.336.056.082.14.126.237.126h.865c-.436.717-.871 1.425-1.292 2.11l-.198.32c-.424.692-.864 1.405-1.307 2.133-.388-.65-.801-1.37-1.2-2.064l-.035-.06c-.546-.952-1.062-1.851-1.42-2.406l.65-.002c.398 0 .398-.372.398-.494 0-.118 0-.48-.282-.48l-1.114.003h-.213c-.457.002-.92.004-1.4.004-.313 0-.313.236-.313.444 0 .17 0 .526.396.526l.288-.001c.21 0 .246.012.246.012.065.027.346.35.677.898l.553.916c.655 1.083 1.332 2.204 1.995 3.308l.053.086c.08.13.163.266.165.368.016.877.014 1.742.012 2.58v.797c-.203 0-.649.002-.921.005-.361.006-.49.135-.49.493 0 .435.27.448.3.448.5 0 1.058 0 1.617.002l1.625.001c.085 0 .208-.01.296-.099.096-.097.094-.224.092-.326v-.041c0-.412-.249-.444-.324-.444l-1.141-.034-.001-.76c-.002-.878-.003-1.707.012-2.575.003-.127.1-.292.188-.44l.013-.02c.414-.692.861-1.394 1.255-2.012a69.79 69.79 0 0 0 1.539-2.49c.351-.607.43-.71.49-.71l.067.003c.098.004.233.002.395 0l.038-.001.189-.001a.263.263 0 0 0 .19-.077c.091-.092.09-.22.088-.383V.74c0-.234-.13-.384-.341-.392" fill="#000"/></g></svg>